<svg width="24175" height="23353" viewBox="0 0 24175 23353" fill="none" xmlns="http://www.w3.org/2000/svg">
<path d="M13034.7 4978.93C13285 3338.38 14467.2 3444.72 14626 3881.23C14664.8 4163.46 12779.5 5608.12 13559.7 4269.11C12599.5 5406.45 13342.6 5127.76 13657.3 4752.43C14992.1 3160.74 13535.9 3698.84 13034.7 4978.93Z" fill="white"/>
<path d="M9366.51 3488.15C8585.7 3056.48 5394.09 4375.79 8840.71 4340.01C7976.65 5447.92 6781.77 3494.69 8314.51 3626.47C9306.36 3711.75 7921.93 3872.28 8780.55 4259.7C6910.69 3630.12 9512.77 3569.01 9366.51 3488.15Z" fill="white"/>
<path d="M10318 4420.21C11263 4358.61 13202.9 4082.87 11368.6 3170.82C8373.95 4586.52 10212.8 4699.92 11368.1 3622.57C10471.3 4822.4 10044.7 3787.85 10543.9 3652.47C12193.9 3204.94 11841 4849.61 10318 4420.21Z" fill="white"/>
<path d="M9534.62 4544.69C6425.04 3988.38 13346.3 1524.69 12470.9 4429.33C12132.2 2870.94 11465 3050.06 10222.3 3562.38C7274.39 4777.73 12096.5 4658.9 11163 4707.97C12267.2 4391.4 10101.9 4646.17 9534.62 4544.69Z" fill="white"/>
<path d="M13652.8 7377.05C15287.1 7937.48 12875.2 10134.4 12964.5 5619.28C12651.7 7799.57 13694.8 8250.35 13911.4 7933.67C13942.7 7888.04 12740.5 5167.1 13131 4952.3C12788.8 5664.7 13354.6 7274.82 13652.8 7377.05Z" fill="white"/>
<rect x="10320.7" y="15392.1" width="1317.64" height="1202.91" rx="63" fill="white"/>
<path d="M17891.1 14254.8C17922.2 14259.3 17945.2 14285.9 17945.2 14317.2L17945.2 14551.2C17945.2 14586 17917 14614.2 17882.2 14614.2L17676.6 14614.2C17655.9 14614.2 17636.6 14604.1 17624.8 14587.1L17528.8 14448.2L17431.7 14305.1C17427.1 14298.3 17421 14292.7 17413.9 14288.8V14288.8C17363.2 14260.4 17389.4 14182.9 17446.9 14191.2L17891.1 14254.8Z" fill="white"/>
<path d="M9652.56 13935.4L18026.7 13909.2H18214.5L18191.1 14988L18111.8 15010.1V15253.1H9587.36L8371.56 15087.3L9652.56 13935.4Z" fill="white"/>
<path d="M4571.1 14297.8C4603.36 14166.7 4656.42 14041.6 4728.27 13927.3L4896.17 13660.2L5853.77 12467.4L6631.33 11636.5L6777.17 11477.4C6862.45 11384.4 6962.05 11305.6 7072.2 11243.9L7081.31 11238.8C7156.01 11197 7235.35 11164.1 7317.7 11140.8V11140.8C7402.7 11116.7 7490.3 11102.9 7578.59 11099.9L9671.34 11027C9799.4 11022.5 9914.51 11104.6 9952 11227.1V11227.1V11227.1C9967.79 11300.1 9975.32 11374.7 9974.47 11449.3L9952 13405V13838.2L9950.02 14023.4C9948.42 14173 9831.97 14296.2 9682.67 14306.2V14306.2C9502.07 14318.4 9355.61 14162.1 9379.41 13982.6L9716.49 11441.7V11441.7C9716.49 11364.9 9654.26 11302.7 9577.5 11302.7H9067.52H8307.62H7754.17L7543.64 11326.1C7478.65 11333.3 7415.02 11349.7 7354.65 11374.8V11374.8C7249.03 11418.7 7155.96 11488.1 7083.78 11576.8L6091.07 12797L5714.12 13285.8C5677.78 13332.9 5664.74 13393.9 5678.63 13451.8V13451.8C5689.41 13496.7 5715.65 13536.3 5752.75 13563.8L5793.59 13594.1C5851.55 13637 5921.78 13660.2 5993.91 13660.2H6012.77H6352.98C6561.63 13660.2 6767.03 13608.5 6950.83 13509.8L7022.07 13471.5L7193.75 13405L7332.4 13369.9L7430.2 13348.1L9529.9 13089.6C9680.03 13071.1 9817.16 13176.7 9837.71 13326.5L9860.44 13492.2C9874.37 13593.8 9786.2 13680 9684.96 13663.7L8105.77 13410.1C8075.3 13405.2 8078.88 13360.3 8109.74 13360.3V13360.3L9019.26 13310L9888.44 13150L9646.6 13207.6C9329.06 13283.3 9309.63 13727.8 9619.37 13830.9V13830.9C9633.92 13835.7 9648.11 13841.6 9661.84 13848.4L9672.72 13853.9C9843.4 13939.1 9950.02 14114.7 9946.91 14305.4L9909.92 16575.1C9907.64 16714.9 9809.28 16834.7 9672.57 16864.2V16864.2C9651.73 16868.7 9630.47 16871 9609.15 16871H9001.1H8959.91V16871C8925.69 16871 8897.95 16843.2 8897.95 16809V16724.6L8873.95 16553.6L8844.63 16442.6L8801.71 16327.6L8748.64 16199L8702.65 16115.6L8626.08 15990L8549.51 15883.6V15883.6C8506.17 15829.9 8457.1 15781 8403.17 15737.9L8361.99 15704.9L8353.91 15699.6C8280.99 15651.1 8203.22 15610.3 8121.85 15577.8L8114.84 15575.1L7981.66 15534.1L7819.17 15496.5L7739.86 15485C7679.93 15476.3 7619.45 15471.9 7558.9 15471.9H7521.79C7456.64 15471.9 7391.59 15477 7327.23 15487L7207.78 15505.6C7138.05 15516.5 7069.43 15533.6 7002.75 15556.7L6997.02 15558.7C6928.66 15582.3 6862.75 15612.6 6800.2 15648.9V15648.9C6714.34 15698.9 6635.49 15760 6565.72 15830.7L6497.48 15899.8L6468.42 15937C6430.7 15985.2 6396.54 16036.2 6366.21 16089.4L6361.22 16098.2L6317.25 16178L6255.84 16294.3L6205.05 16427.2L6180.03 16519.4L6165.88 16580.2C6154.94 16627.2 6147.52 16675 6143.68 16723.1V16723.1V16723.1C6131.4 16805.8 6132.39 16890 6146.59 16972.3L6155.26 17022.6L6158.06 17091.7C6158.92 17113.1 6130.24 17120.8 6120.18 17101.9V17101.9V17101.9C6052.1 16997.3 5941.2 16928.3 5817.3 16913.3L5650.64 16893.2L5365.1 16875.7C5313.69 16872.6 5262.1 16875.3 5211.31 16883.8V16883.8C5174.19 16890.1 5136.61 16893.2 5098.96 16893.2H4907.01C4889.89 16893.2 4873.19 16887.9 4859.22 16878V16878C4852.68 16873.3 4846.84 16867.8 4841.91 16861.4L4777.49 16778.9C4738.19 16728.5 4716.84 16666.4 4716.84 16602.5V16602.5C4716.84 16550.3 4702.58 16499.1 4675.58 16454.4L4653.7 16418.1C4631.22 16380.9 4614.4 16340.6 4603.8 16298.4L4588.32 16236.9C4577.88 16195.3 4570.54 16153.1 4566.36 16110.5L4547.96 15922.5L4547.96 15414.2C4547.96 15357.5 4586.75 15308.1 4641.87 15294.6L4665.93 15288.7C4672.01 15287.2 4677.58 15284.1 4682.02 15279.7V15279.7C4698.93 15262.8 4693.93 15234.3 4672.29 15224.2L4588.49 15185.1C4562.72 15173.1 4543.37 15150.6 4535.36 15123.3L4527.87 15097.9C4523.63 15083.4 4521.47 15068.4 4521.47 15053.4V14731.7V14665.9C4521.47 14605.5 4525.81 14545.2 4534.45 14485.3L4547.96 14391.8L4571.1 14297.8Z" fill="white"/>
<path d="M12060.4 16416.1C12060.4 16416.1 12294.2 16375.4 12389.4 16357.5C12484.7 16339.5 12987.9 16219 12987.9 16219L16079.6 15535.4H14215.4L14189.5 15542.7L14606.2 15424.5L14690.6 15395.6L14755.3 15382L14837.2 15371.6H14916.6H14975.4H15050.8H15419.2L17794.5 15357L17749.7 15357.3L17681.8 15504.8L17769.2 15373.9L17717.6 15504.8L17794.5 15392.4L17805.6 15410.8L17822.8 15446.7L17839.2 15481.8L17846.8 15495L17812.2 15504.8L17845.8 15522.3L17849 15528.6L17845.8 15531.6L17840.2 15557.1C17840.2 15557.1 17838.7 15563.2 17837.7 15567C17836.5 15571.3 17834.4 15577.9 17834.4 15577.9L17826.8 15602.9L17819.5 15621.8L17668.6 15495L17794.5 15689.8L17600.9 15545.5L17781.6 15711.5L16162.7 15712.3H15663.8L17521 15621.8L17849 15602.9V16667.8L17819.5 16838.4L17769.2 16878.6L17717.6 16935.2H15663.8L16190.7 15867L15227.4 15958.9L15138.4 15980.7L15077.3 16003.4L15031 16032.7L14989.9 16067.9L14856.4 16190.7L14801.1 16261.2L14697.2 16445.2L14656.3 16535.4L14634.5 16616L14616.3 16746.4L14606.2 16878.6V16985.2L14616.3 17057L14554.9 17095.4H14491L14459.1 17021.1L14319.2 16960.7L14207.2 16715.8L14239 16630.1L14319.2 16402.7L14422.3 16150V15938.2L14444.5 16041.8L14491 16013L14524.9 15980.7L14938.8 15938.2L15125.8 16057.5L15545.1 16293L15270.6 16486.6L15244.3 16616L15050.8 16550L15244.3 16530.1L14422.3 16150L13160 16437.8L13138 16444.7V16449.5L13135.7 16370.1H13197.9L13305.5 16357.5L13338.4 16397.2L13646.2 16521.5L13914.1 16616L14032.1 16654.7L14129.4 16689L14207.2 16715.8L14423.3 16935.2L14459.1 17021.1L15140 17272.3L13404.1 16689C13404.1 16689 14598.4 17050.4 14279.7 16985.2C13961.1 16920 13770.8 16860.1 13770.8 16860.1L13697.2 16838.4L12876.7 16573.3L12108.7 16656.4L12461.7 16475.7L12417.2 16427L12987.9 16550L11968.7 16762.8L11733.1 16838.4L11762.3 16829L12769.5 16444.7L15596.6 16935.2L15084.4 17127.7L10479.7 17040.6H8769.08L8619.72 16615.5L9055.4 16701.7H9155.73H9256.56H9564.36H9709.42L9816.07 16691.1L9919.93 16656.4L9966.18 16616L9994.73 16563.9L10001.1 16486.6V16334.5V16235.9V16064.1V15465.6L10025.1 15446.2L10104.9 15345.4L10040 15160.9L10121.6 15087.8L10144.6 14750.2L10339.2 14779.8V15028.2L10221.9 14993.8L10241.1 14905.9V15390.3L10221.9 16219V16312V16486.6L10219.6 16650.1L10241.1 16691.1L10266.1 16708.7L10312.6 16719.4H10685.6H10961.1H11158H11337.4H11397.5H11431.9L11482.2 16705.2L11506.5 16674.9L11522.9 16637.5L11531.5 16599.6L11535.8 16483.3L11688.7 16470.7L11839.5 16455L11898.2 16444.7L12060.4 16416.1Z" fill="white"/>
<path d="M17263.2 17032.2C17263.2 17737.9 16691.2 18309.9 15985.5 18309.9C15279.9 18309.9 14707.8 17737.9 14707.8 17032.2C14707.8 16326.5 15279.9 15754.5 15985.5 15754.5C16691.2 15754.5 17263.2 16326.5 17263.2 17032.2Z" fill="white"/>
<circle cx="7537.34" cy="17067.6" r="1277.72" fill="white"/>
<path d="M17302.7 15340.5H18126.5V15455V15604.4L18146.5 15741.6L18164.7 15864.7L18181.6 15973.8L18146.5 15993.6L17954.7 15836.6L17826.1 15741.6L17769.9 15708L17644.1 15689.3H17521H17302.7V15340.5Z" fill="white"/>
<path d="M10111.2 15356L17852.1 15340.6V15569H9882.76L9817.31 15383.3V15188.2H10064.7L10111.2 15356Z" fill="white"/>
<rect x="11638.4" y="15569" width="299.212" height="1010.35" fill="white"/>
<rect x="12943.9" y="15340.5" width="349.249" height="1010.35" fill="white"/>
<rect x="14529.9" y="15466.9" width="387.156" height="544.343" fill="white"/>
<path d="M13818.8 10660.6H13999.5H14244.8L14371.2 10666.9L14531.9 10686.6L14632.3 10702.9L14764.4 10733.4L14888 10768.7L15017.4 10814.2L15142 10883.7L15223.4 10941.3L15295.4 10991.6L15386.4 11068.4L15515.7 11185.7L15663.6 11355.5L15782.9 11534.7L15861.5 11735.9L15930.7 11978L15999.9 12342.4L16037.6 12770L16062.6 13071.7L16089.1 13458.4V13757.8V14115.9L11569.9 14103.4H11486.7V14002.1V13932.3V13880.5V13778.7V13656.1L11491.5 13544.1L11499.6 13436L11505.4 13388L11508.7 13344.5L11515.5 13278.3L11574.9 12774.4L11754.1 13948.7L11621.7 13682.9L11860.8 13725.3L11719.2 13778.7L11597.9 13747.1L11823.9 13887.8L11922.2 13689.7L11621.7 13349.8L11793.3 13363.5L12160.2 13416.8L12015.7 13646.8L12294.9 13932.3L11499.6 14019.5L11495.1 13633.6L11516 13486.3L11505.4 13540.4L11499.6 13908.3L11522.6 13315.2L11530.5 13192.1L11544.6 13015.7L11561 12864.4L11574.9 12712.2L11589.1 12561.3L11610.6 12406.6L11690.9 12439.3L12451.3 12864.4L12375 13561L12022.7 13167.7L11922.2 13205.4L11610.6 12406.6L11637.9 12250.4L11690.9 12007.3L11754.1 11797L11819.1 11629L11890.1 11489L12009.9 11299.7L12227.7 11066.7L12428.6 10913L12539.8 10845.1L12672 10772L12792.5 10733.4L12901.7 10702.9L13363.6 10660.6L13185.7 10673.8L13013.4 10686.6L13211.5 10666.9L13409.6 10660.6H13510H13635.1H13818.8Z" fill="white"/>
<path d="M6457.55 12944.9C6537.81 13196.7 6302.86 13624 5843.24 13624C5683.82 13624 5706.32 13560.5 5706.31 13536.6C5746.02 13040.4 5929.95 12857.7 6013.65 12843.2C6092.03 12829.7 6444.61 12904.4 6457.55 12944.9Z" fill="white"/>
<ellipse cx="14204.1" cy="12913" rx="1879.43" ry="2275.43" fill="white"/>
<path d="M15318.2 12209.7C15318.2 13449.5 14973.8 15188.6 13733.1 15188.6C12492.3 15188.6 11399.3 15333.7 11478.7 13328.1C11507.5 12600.2 11350.3 10519 13467.7 10519C15844.8 10490.5 15318.2 10969.9 15318.2 12209.7Z" fill="white"/>
<path d="M16092.7 11897.8C16238.5 13991.9 15480.8 14449.1 14726 14449.1C13971.2 14449.1 13359.3 13595.9 13359.3 12543.3C13359.3 11490.8 13971.2 10637.5 14726 10637.5C15456.3 10553.1 15952.4 11075.9 16092.7 11897.8Z" fill="white"/>
<circle cx="12917.1" cy="11862.7" r="25.2713" fill="white"/>
<path d="M14308 12887.9C14308 14130.8 13676.4 15138.3 12897.4 15138.3C12118.3 15138.3 11486.7 14130.8 11486.7 12887.9C11486.7 11645.1 12090.2 10931.9 12922.1 10612.5C13754.1 10293.1 14308 11645.1 14308 12887.9Z" fill="white"/>
<path d="M16101.5 13088.9C16062.3 15277.4 15756.9 14118.4 15320.4 14118.4C14883.8 14118.4 14529.9 13607.8 14529.9 12977.9C14529.9 12348.1 15302.3 12427.8 15738.9 12427.8C16175.4 12427.8 16101.5 12459 16101.5 13088.9Z" fill="white"/>
<path d="M15409.8 10877.8C15409.8 11110.9 14719.2 11299.8 13867.3 11299.8C13015.3 11299.8 12324.7 11110.9 12324.7 10877.8C12324.7 10644.8 13071.4 10478.4 13923.4 10478.4C14576.4 10443.8 15409.8 10644.8 15409.8 10877.8Z" fill="white"/>
<path d="M16215 13196C16215 14380.5 15969.2 15224 15666.1 15224C15363 15224 15117.2 14380.5 15117.2 13196C15117.2 12011.4 15363 11051.2 15666.1 11051.2C15969.2 11051.2 16215 12011.4 16215 13196Z" fill="white"/>
<rect x="13652.5" y="9987.76" width="595.897" height="486.725" fill="white"/>
<path d="M13931.7 9785.33L14433.1 9695.61L14606.1 10114.6L13299.1 10102.2L13447.8 9680.7L13931.7 9785.33Z" fill="white"/>
<ellipse cx="13932.2" cy="9763.35" rx="387.914" ry="99.5689" fill="white"/>
<g filter="url(#filter0_d_68_192)">
<path d="M13369.6 2397.16C14435.5 3945.53 23128.3 7492.5 16816.8 3562C16816.8 3562 17826.5 5149.53 16533.5 4450.88C9930.09 882.608 18451.2 3940.95 13620.7 4848.29C21311 4983.73 13324.4 2331.53 13369.6 2397.16Z" fill="white"/>
<path d="M16819.2 4512.8C16798.1 4527.23 16774.6 4541.3 16748.6 4555.01C16745.8 4553.8 16742.9 4552.57 16740 4551.32C16694.3 4530.01 16648.5 4508.42 16602.6 4486.58C16580.4 4475.28 16557.5 4463.24 16533.8 4450.44C15949.3 4134.61 15483.3 3870.7 15116.1 3652.62C15069.7 3559.27 15002.9 3468.4 14924.3 3382.62C14776.9 3221.8 14587.8 3078.81 14412.5 2970.81C14237.2 2862.8 14075.8 2789.74 13983.8 2768.81C13960.8 2763.57 13942.1 2761.59 13928.5 2763.15C13915 2764.71 13906.5 2769.85 13904.3 2779.03C13903.2 2783.58 13903.7 2789.06 13905.8 2795.48C13907.9 2801.9 13911.6 2809.29 13917.1 2817.67C13928 2834.44 13945.8 2855.25 13971.5 2880.37C14074.2 2980.86 14301.9 3150.58 14710.3 3406.68C14829.5 3481.4 14964 3563.47 15115.3 3653.33C15127.8 3678.48 15138.8 3703.81 15148.2 3729.27C14752.3 3502.58 14385.6 3272.14 14082.9 3052.57C13755.5 2815.08 13503.2 2590.35 13370 2396.87C13369.9 2396.78 13369.9 2396.72 13369.9 2396.69C13369.9 2396.67 13370 2396.63 13370.1 2396.59C13370.6 2396.44 13371.6 2396.41 13373.2 2396.55C13376.3 2396.83 13381.3 2397.74 13388 2399.29C13401.6 2402.37 13422.2 2407.94 13449.3 2415.84C13503.4 2431.62 13583.1 2456.68 13682.7 2489.67C13881.7 2555.64 14159.9 2653.33 14471 2771.97C15093.2 3009.27 15847 3330.39 16361.8 3649.33C16619.2 3808.8 16816.8 3967.68 16908.4 4115.21C16954.2 4188.97 16973.5 4259.83 16960.6 4326.49C16947.6 4393.15 16902.5 4455.7 16819.2 4512.8ZM15185.6 3901.6C15183 3844.64 15170.6 3787.76 15150.1 3731.5C15181.6 3749.54 15213.3 3767.56 15245.2 3785.55C15681.3 4031.69 16148.7 4271.97 16602.1 4487.47C16651.6 4512.68 16697.3 4534.18 16739.6 4552.24C16742.1 4553.42 16744.6 4554.6 16747.2 4555.79C16567.2 4650.21 16267 4726.89 15816 4778.67C15299.2 4837.99 14584.4 4864.63 13625.6 4847.88C14226.7 4734.58 14620.5 4587.88 14862.2 4424.77C15104.5 4261.21 15193.8 4081.1 15185.6 3901.6ZM16533.3 4451.32C16547.3 4458.86 16560.9 4466.13 16574.4 4473.14C16129.8 4261.11 15672.8 4025.71 15245.7 3784.68C15213.5 3766.5 15181.4 3748.28 15149.6 3730.05C15140.3 3704.64 15129.3 3679.37 15116.9 3654.27C15484 3872.21 15949.5 4135.87 16533.3 4451.32ZM17859.9 5033.69C17528.4 4905.03 17152.9 4743.68 16762.9 4562C16821 4585.85 16872.1 4602.85 16916.8 4613.76C17013 4637.22 17079.8 4632.55 17123.5 4607.17C17167.3 4581.76 17187.9 4535.69 17191.9 4476.69C17195.8 4417.7 17183.2 4345.7 17160.5 4268.29C17115.1 4113.46 17029.3 3936.82 16954.8 3798.9C16917.6 3729.93 16883.2 3670.64 16858.1 3628.59C16845.6 3607.57 16835.4 3590.85 16828.3 3579.4C16824.7 3573.67 16822 3569.25 16820.1 3566.27C16819.4 3565.18 16818.9 3564.28 16818.4 3563.58C17606.4 4054.32 18160.3 4428.42 18524.2 4704.34C18706.3 4842.41 18840.9 4955.89 18933.4 5047.09C18979.6 5092.69 19015.4 5132.72 19041.3 5167.46C19067.2 5202.2 19083.3 5231.63 19090.3 5256.05C19097.2 5280.46 19095.1 5299.8 19084.6 5314.45C19074.2 5329.12 19055.3 5339.19 19028.6 5344.88C18975.2 5356.26 18890.8 5350.04 18780.9 5328.48C18561 5285.36 18239.3 5180.93 17859.9 5033.69Z" stroke="black"/>
</g>
<path d="M7353.52 3375.69C6552.97 3776.22 15086.5 1427.73 12742 3920.72C15411.3 3064.74 10610.2 2245.96 10785.5 2226.14C15514.5 1691.62 11974.5 3976.17 11486.8 6708.53C15093.1 2704.33 10804 1649.31 7353.52 3375.69Z" fill="white"/>
<path d="M12641.9 20961.5C-3561.79 20961.5 -866.356 3859.41 11254 2224.45C-1561.44 1730.64 -6211.44 23306 12641.9 23306C28524.9 23306 27152.9 1967.5 13404.6 2396.79C26387.4 3833 25984.4 20961.5 12641.9 20961.5Z" fill="white"/>
<path d="M13979.6 4848.29C12489.6 5493.29 14914.6 7558.26 15002.1 8884.25C14881.1 9559.33 10143.6 8272.75 13212.1 4603.71C11706.4 7661.2 14513.6 9962.75 14780.1 8550.75C14891.2 7962.09 11855.6 5026.29 13979.6 4848.29Z" fill="white"/>
<path d="M13123.9 10149.8C11419.5 8463.29 17229.9 9999.79 14722 10243.2C16920.9 11421.3 13204.5 4805.29 13645 5354.79C18992.5 12025.7 9204.98 8395.79 12117 6632.29C9717.48 8085.42 14042.4 11058.6 13123.9 10149.8Z" fill="white"/>
<rect x="12694.8" y="12388" width="2422" height="1037" fill="white"/>
<defs>
<filter id="filter0_d_68_192" x="13365.4" y="2395.96" width="5733.43" height="2963.02" filterUnits="userSpaceOnUse" color-interpolation-filters="sRGB">
<feFlood flood-opacity="0" result="BackgroundImageFix"/>
<feColorMatrix in="SourceAlpha" type="matrix" values="0 0 0 0 0 0 0 0 0 0 0 0 0 0 0 0 0 0 127 0" result="hardAlpha"/>
<feOffset dy="4"/>
<feGaussianBlur stdDeviation="2"/>
<feComposite in2="hardAlpha" operator="out"/>
<feColorMatrix type="matrix" values="0 0 0 0 0 0 0 0 0 0 0 0 0 0 0 0 0 0 0.25 0"/>
<feBlend mode="normal" in2="BackgroundImageFix" result="effect1_dropShadow_68_192"/>
<feBlend mode="normal" in="SourceGraphic" in2="effect1_dropShadow_68_192" result="shape"/>
</filter>
</defs>
</svg>
